<?xml version="1.0" encoding="UTF-8" standalone="no"?>
<!DOCTYPE svg PUBLIC "-//W3C//DTD SVG 1.1//EN"
 "http://www.w3.org/Graphics/SVG/1.1/DTD/svg11.dtd">
<!-- Generated by graphviz version 6.0.1 (0)
 -->
<!-- Title: Tree Pages: 1 -->
<svg width="644pt" height="269pt"
 viewBox="0.00 0.00 644.00 269.00" xmlns="http://www.w3.org/2000/svg" xmlns:xlink="http://www.w3.org/1999/xlink">
<g id="graph0" class="graph" transform="scale(1 1) rotate(0) translate(4 265)">
<title>Tree</title>
<polygon fill="white" stroke="none" points="-4,4 -4,-265 640,-265 640,4 -4,4"/>
<!-- 0 -->
<g id="node1" class="node">
<title>0</title>
<polygon fill="none" stroke="black" points="436.5,-261 222.5,-261 222.5,-193 436.5,-193 436.5,-261"/>
<text text-anchor="middle" x="329.5" y="-245.8" font-family="Helvetica,sans-Serif" font-size="14.00">occupation_Prof&#45;specialty &lt;= 0.5</text>
<text text-anchor="middle" x="329.5" y="-230.8" font-family="Helvetica,sans-Serif" font-size="14.00">gini = 0.368</text>
<text text-anchor="middle" x="329.5" y="-215.8" font-family="Helvetica,sans-Serif" font-size="14.00">counts = [19726, 6322]</text>
<text text-anchor="middle" x="329.5" y="-200.8" font-family="Helvetica,sans-Serif" font-size="14.00">class = 0.0</text>
</g>
<!-- 1 -->
<g id="node2" class="node">
<title>1</title>
<polygon fill="none" stroke="black" points="310.5,-157 146.5,-157 146.5,-89 310.5,-89 310.5,-157"/>
<text text-anchor="middle" x="228.5" y="-141.8" font-family="Helvetica,sans-Serif" font-size="14.00">relationship_Wife &lt;= 0.5</text>
<text text-anchor="middle" x="228.5" y="-126.8" font-family="Helvetica,sans-Serif" font-size="14.00">gini = 0.335</text>
<text text-anchor="middle" x="228.5" y="-111.8" font-family="Helvetica,sans-Serif" font-size="14.00">counts = [17899, 4829]</text>
<text text-anchor="middle" x="228.5" y="-96.8" font-family="Helvetica,sans-Serif" font-size="14.00">class = 0.0</text>
</g>
<!-- 0&#45;&gt;1 -->
<g id="edge1" class="edge">
<title>0&#45;&gt;1</title>
<path fill="none" stroke="black" d="M296.71,-192.88C287.8,-183.89 278.05,-174.04 268.78,-164.68"/>
<polygon fill="black" stroke="black" points="271,-161.94 261.47,-157.3 266.02,-166.87 271,-161.94"/>
<text text-anchor="middle" x="261.35" y="-178.6" font-family="Helvetica,sans-Serif" font-size="14.00">True</text>
</g>
<!-- 4 -->
<g id="node5" class="node">
<title>4</title>
<polygon fill="none" stroke="black" points="532,-157 329,-157 329,-89 532,-89 532,-157"/>
<text text-anchor="middle" x="430.5" y="-141.8" font-family="Helvetica,sans-Serif" font-size="14.00">workclass_Self&#45;emp&#45;inc &lt;= 0.5</text>
<text text-anchor="middle" x="430.5" y="-126.8" font-family="Helvetica,sans-Serif" font-size="14.00">gini = 0.495</text>
<text text-anchor="middle" x="430.5" y="-111.8" font-family="Helvetica,sans-Serif" font-size="14.00">counts = [1827, 1493]</text>
<text text-anchor="middle" x="430.5" y="-96.8" font-family="Helvetica,sans-Serif" font-size="14.00">class = 0.0</text>
</g>
<!-- 0&#45;&gt;4 -->
<g id="edge4" class="edge">
<title>0&#45;&gt;4</title>
<path fill="none" stroke="black" d="M362.29,-192.88C371.2,-183.89 380.95,-174.04 390.22,-164.68"/>
<polygon fill="black" stroke="black" points="392.98,-166.87 397.53,-157.3 388,-161.94 392.98,-166.87"/>
<text text-anchor="middle" x="397.65" y="-178.6" font-family="Helvetica,sans-Serif" font-size="14.00">False</text>
</g>
<!-- 2 -->
<g id="node3" class="node">
<title>2</title>
<polygon fill="none" stroke="black" points="155,-53 0,-53 0,0 155,0 155,-53"/>
<text text-anchor="middle" x="77.5" y="-37.8" font-family="Helvetica,sans-Serif" font-size="14.00">gini = 0.324</text>
<text text-anchor="middle" x="77.5" y="-22.8" font-family="Helvetica,sans-Serif" font-size="14.00">counts = [17280, 4412]</text>
<text text-anchor="middle" x="77.5" y="-7.8" font-family="Helvetica,sans-Serif" font-size="14.00">class = 0.0</text>
</g>
<!-- 1&#45;&gt;2 -->
<g id="edge2" class="edge">
<title>1&#45;&gt;2</title>
<path fill="none" stroke="black" d="M175.69,-88.95C160.05,-79.16 142.97,-68.48 127.52,-58.8"/>
<polygon fill="black" stroke="black" points="128.96,-55.57 118.62,-53.24 125.24,-61.51 128.96,-55.57"/>
</g>
<!-- 3 -->
<g id="node4" class="node">
<title>3</title>
<polygon fill="none" stroke="black" points="305.5,-53 173.5,-53 173.5,0 305.5,0 305.5,-53"/>
<text text-anchor="middle" x="239.5" y="-37.8" font-family="Helvetica,sans-Serif" font-size="14.00">gini = 0.481</text>
<text text-anchor="middle" x="239.5" y="-22.8" font-family="Helvetica,sans-Serif" font-size="14.00">counts = [619, 417]</text>
<text text-anchor="middle" x="239.5" y="-7.8" font-family="Helvetica,sans-Serif" font-size="14.00">class = 0.0</text>
</g>
<!-- 1&#45;&gt;3 -->
<g id="edge3" class="edge">
<title>1&#45;&gt;3</title>
<path fill="none" stroke="black" d="M232.35,-88.95C233.32,-80.62 234.36,-71.65 235.34,-63.2"/>
<polygon fill="black" stroke="black" points="238.82,-63.57 236.5,-53.24 231.87,-62.76 238.82,-63.57"/>
</g>
<!-- 5 -->
<g id="node6" class="node">
<title>5</title>
<polygon fill="none" stroke="black" points="493,-53 346,-53 346,0 493,0 493,-53"/>
<text text-anchor="middle" x="419.5" y="-37.8" font-family="Helvetica,sans-Serif" font-size="14.00">gini = 0.492</text>
<text text-anchor="middle" x="419.5" y="-22.8" font-family="Helvetica,sans-Serif" font-size="14.00">counts = [1789, 1391]</text>
<text text-anchor="middle" x="419.5" y="-7.8" font-family="Helvetica,sans-Serif" font-size="14.00">class = 0.0</text>
</g>
<!-- 4&#45;&gt;5 -->
<g id="edge5" class="edge">
<title>4&#45;&gt;5</title>
<path fill="none" stroke="black" d="M426.65,-88.95C425.68,-80.62 424.64,-71.65 423.66,-63.2"/>
<polygon fill="black" stroke="black" points="427.13,-62.76 422.5,-53.24 420.18,-63.57 427.13,-62.76"/>
</g>
<!-- 6 -->
<g id="node7" class="node">
<title>6</title>
<polygon fill="none" stroke="black" points="636,-53 511,-53 511,0 636,0 636,-53"/>
<text text-anchor="middle" x="573.5" y="-37.8" font-family="Helvetica,sans-Serif" font-size="14.00">gini = 0.396</text>
<text text-anchor="middle" x="573.5" y="-22.8" font-family="Helvetica,sans-Serif" font-size="14.00">counts = [38, 102]</text>
<text text-anchor="middle" x="573.5" y="-7.8" font-family="Helvetica,sans-Serif" font-size="14.00">class = 1.0</text>
</g>
<!-- 4&#45;&gt;6 -->
<g id="edge6" class="edge">
<title>4&#45;&gt;6</title>
<path fill="none" stroke="black" d="M480.51,-88.95C495.33,-79.16 511.49,-68.48 526.13,-58.8"/>
<polygon fill="black" stroke="black" points="528.14,-61.67 534.55,-53.24 524.28,-55.83 528.14,-61.67"/>
</g>
</g>
</svg>