<?xml version="1.0" encoding="UTF-8" standalone="no"?>
<!DOCTYPE svg PUBLIC "-//W3C//DTD SVG 1.1//EN"
 "http://www.w3.org/Graphics/SVG/1.1/DTD/svg11.dtd">
<!-- Generated by graphviz version 6.0.1 (0)
 -->
<!-- Title: Tree Pages: 1 -->
<svg width="685pt" height="269pt"
 viewBox="0.00 0.00 685.00 269.00" xmlns="http://www.w3.org/2000/svg" xmlns:xlink="http://www.w3.org/1999/xlink">
<g id="graph0" class="graph" transform="scale(1 1) rotate(0) translate(4 265)">
<title>Tree</title>
<polygon fill="white" stroke="none" points="-4,4 -4,-265 681,-265 681,4 -4,4"/>
<!-- 0 -->
<g id="node1" class="node">
<title>0</title>
<polygon fill="none" stroke="black" points="419,-261 260,-261 260,-193 419,-193 419,-261"/>
<text text-anchor="middle" x="339.5" y="-245.8" font-family="Helvetica,sans-Serif" font-size="14.00">hours.per.week &lt;= 0.08</text>
<text text-anchor="middle" x="339.5" y="-230.8" font-family="Helvetica,sans-Serif" font-size="14.00">gini = 0.366</text>
<text text-anchor="middle" x="339.5" y="-215.8" font-family="Helvetica,sans-Serif" font-size="14.00">counts = [19755, 6293]</text>
<text text-anchor="middle" x="339.5" y="-200.8" font-family="Helvetica,sans-Serif" font-size="14.00">class = 0.0</text>
</g>
<!-- 1 -->
<g id="node2" class="node">
<title>1</title>
<polygon fill="none" stroke="black" points="312.5,-157 122.5,-157 122.5,-89 312.5,-89 312.5,-157"/>
<text text-anchor="middle" x="217.5" y="-141.8" font-family="Helvetica,sans-Serif" font-size="14.00">relationship_Husband &lt;= 0.5</text>
<text text-anchor="middle" x="217.5" y="-126.8" font-family="Helvetica,sans-Serif" font-size="14.00">gini = 0.288</text>
<text text-anchor="middle" x="217.5" y="-111.8" font-family="Helvetica,sans-Serif" font-size="14.00">counts = [15127, 3200]</text>
<text text-anchor="middle" x="217.5" y="-96.8" font-family="Helvetica,sans-Serif" font-size="14.00">class = 0.0</text>
</g>
<!-- 0&#45;&gt;1 -->
<g id="edge1" class="edge">
<title>0&#45;&gt;1</title>
<path fill="none" stroke="black" d="M299.89,-192.88C288.81,-183.62 276.65,-173.45 265.16,-163.85"/>
<polygon fill="black" stroke="black" points="267.25,-161.03 257.33,-157.3 262.76,-166.4 267.25,-161.03"/>
<text text-anchor="middle" x="259.55" y="-178.5" font-family="Helvetica,sans-Serif" font-size="14.00">True</text>
</g>
<!-- 4 -->
<g id="node5" class="node">
<title>4</title>
<polygon fill="none" stroke="black" points="594,-157 331,-157 331,-89 594,-89 594,-157"/>
<text text-anchor="middle" x="462.5" y="-141.8" font-family="Helvetica,sans-Serif" font-size="14.00">marital.status_Married&#45;civ&#45;spouse &lt;= 0.5</text>
<text text-anchor="middle" x="462.5" y="-126.8" font-family="Helvetica,sans-Serif" font-size="14.00">gini = 0.48</text>
<text text-anchor="middle" x="462.5" y="-111.8" font-family="Helvetica,sans-Serif" font-size="14.00">counts = [4628, 3093]</text>
<text text-anchor="middle" x="462.5" y="-96.8" font-family="Helvetica,sans-Serif" font-size="14.00">class = 0.0</text>
</g>
<!-- 0&#45;&gt;4 -->
<g id="edge4" class="edge">
<title>0&#45;&gt;4</title>
<path fill="none" stroke="black" d="M379.43,-192.88C390.61,-183.62 402.86,-173.45 414.45,-163.85"/>
<polygon fill="black" stroke="black" points="416.88,-166.38 422.34,-157.3 412.41,-160.99 416.88,-166.38"/>
<text text-anchor="middle" x="420.02" y="-178.49" font-family="Helvetica,sans-Serif" font-size="14.00">False</text>
</g>
<!-- 2 -->
<g id="node3" class="node">
<title>2</title>
<polygon fill="none" stroke="black" points="147,-53 0,-53 0,0 147,0 147,-53"/>
<text text-anchor="middle" x="73.5" y="-37.8" font-family="Helvetica,sans-Serif" font-size="14.00">gini = 0.134</text>
<text text-anchor="middle" x="73.5" y="-22.8" font-family="Helvetica,sans-Serif" font-size="14.00">counts = [11258, 880]</text>
<text text-anchor="middle" x="73.5" y="-7.8" font-family="Helvetica,sans-Serif" font-size="14.00">class = 0.0</text>
</g>
<!-- 1&#45;&gt;2 -->
<g id="edge2" class="edge">
<title>1&#45;&gt;2</title>
<path fill="none" stroke="black" d="M167.14,-88.95C152.22,-79.16 135.94,-68.48 121.2,-58.8"/>
<polygon fill="black" stroke="black" points="123,-55.8 112.72,-53.24 119.16,-61.65 123,-55.8"/>
</g>
<!-- 3 -->
<g id="node4" class="node">
<title>3</title>
<polygon fill="none" stroke="black" points="312,-53 165,-53 165,0 312,0 312,-53"/>
<text text-anchor="middle" x="238.5" y="-37.8" font-family="Helvetica,sans-Serif" font-size="14.00">gini = 0.469</text>
<text text-anchor="middle" x="238.5" y="-22.8" font-family="Helvetica,sans-Serif" font-size="14.00">counts = [3869, 2320]</text>
<text text-anchor="middle" x="238.5" y="-7.8" font-family="Helvetica,sans-Serif" font-size="14.00">class = 0.0</text>
</g>
<!-- 1&#45;&gt;3 -->
<g id="edge3" class="edge">
<title>1&#45;&gt;3</title>
<path fill="none" stroke="black" d="M224.84,-88.95C226.69,-80.62 228.69,-71.65 230.57,-63.2"/>
<polygon fill="black" stroke="black" points="234.03,-63.76 232.78,-53.24 227.19,-62.24 234.03,-63.76"/>
</g>
<!-- 5 -->
<g id="node6" class="node">
<title>5</title>
<polygon fill="none" stroke="black" points="511.5,-53 371.5,-53 371.5,0 511.5,0 511.5,-53"/>
<text text-anchor="middle" x="441.5" y="-37.8" font-family="Helvetica,sans-Serif" font-size="14.00">gini = 0.29</text>
<text text-anchor="middle" x="441.5" y="-22.8" font-family="Helvetica,sans-Serif" font-size="14.00">counts = [2558, 547]</text>
<text text-anchor="middle" x="441.5" y="-7.8" font-family="Helvetica,sans-Serif" font-size="14.00">class = 0.0</text>
</g>
<!-- 4&#45;&gt;5 -->
<g id="edge5" class="edge">
<title>4&#45;&gt;5</title>
<path fill="none" stroke="black" d="M455.16,-88.95C453.31,-80.62 451.31,-71.65 449.43,-63.2"/>
<polygon fill="black" stroke="black" points="452.81,-62.24 447.22,-53.24 445.97,-63.76 452.81,-62.24"/>
</g>
<!-- 6 -->
<g id="node7" class="node">
<title>6</title>
<polygon fill="none" stroke="black" points="677,-53 530,-53 530,0 677,0 677,-53"/>
<text text-anchor="middle" x="603.5" y="-37.8" font-family="Helvetica,sans-Serif" font-size="14.00">gini = 0.495</text>
<text text-anchor="middle" x="603.5" y="-22.8" font-family="Helvetica,sans-Serif" font-size="14.00">counts = [2070, 2546]</text>
<text text-anchor="middle" x="603.5" y="-7.8" font-family="Helvetica,sans-Serif" font-size="14.00">class = 1.0</text>
</g>
<!-- 4&#45;&gt;6 -->
<g id="edge6" class="edge">
<title>4&#45;&gt;6</title>
<path fill="none" stroke="black" d="M511.81,-88.95C526.28,-79.25 542.06,-68.68 556.39,-59.07"/>
<polygon fill="black" stroke="black" points="558.74,-61.71 565.1,-53.24 554.84,-55.9 558.74,-61.71"/>
</g>
</g>
</svg>