<?xml version="1.0" encoding="UTF-8" standalone="no"?>
<!DOCTYPE svg PUBLIC "-//W3C//DTD SVG 1.1//EN"
 "http://www.w3.org/Graphics/SVG/1.1/DTD/svg11.dtd">
<!-- Generated by graphviz version 6.0.1 (0)
 -->
<!-- Title: Tree Pages: 1 -->
<svg width="1246pt" height="373pt"
 viewBox="0.00 0.00 1245.50 373.00" xmlns="http://www.w3.org/2000/svg" xmlns:xlink="http://www.w3.org/1999/xlink">
<g id="graph0" class="graph" transform="scale(1 1) rotate(0) translate(4 369)">
<title>Tree</title>
<polygon fill="white" stroke="none" points="-4,4 -4,-369 1241.5,-369 1241.5,4 -4,4"/>
<!-- 0 -->
<g id="node1" class="node">
<title>0</title>
<polygon fill="none" stroke="black" points="702,-365 547,-365 547,-297 702,-297 702,-365"/>
<text text-anchor="middle" x="624.5" y="-349.8" font-family="Helvetica,sans-Serif" font-size="14.00">LightGBM &lt;= 0.422</text>
<text text-anchor="middle" x="624.5" y="-334.8" font-family="Helvetica,sans-Serif" font-size="14.00">gini = 0.367</text>
<text text-anchor="middle" x="624.5" y="-319.8" font-family="Helvetica,sans-Serif" font-size="14.00">counts = [19744, 6304]</text>
<text text-anchor="middle" x="624.5" y="-304.8" font-family="Helvetica,sans-Serif" font-size="14.00">class = 0</text>
</g>
<!-- 1 -->
<g id="node2" class="node">
<title>1</title>
<polygon fill="none" stroke="black" points="548,-261 393,-261 393,-193 548,-193 548,-261"/>
<text text-anchor="middle" x="470.5" y="-245.8" font-family="Helvetica,sans-Serif" font-size="14.00">XGBoost &lt;= 0.103</text>
<text text-anchor="middle" x="470.5" y="-230.8" font-family="Helvetica,sans-Serif" font-size="14.00">gini = 0.158</text>
<text text-anchor="middle" x="470.5" y="-215.8" font-family="Helvetica,sans-Serif" font-size="14.00">counts = [18097, 1718]</text>
<text text-anchor="middle" x="470.5" y="-200.8" font-family="Helvetica,sans-Serif" font-size="14.00">class = 0</text>
</g>
<!-- 0&#45;&gt;1 -->
<g id="edge1" class="edge">
<title>0&#45;&gt;1</title>
<path fill="none" stroke="black" d="M574.5,-296.88C560.04,-287.3 544.12,-276.76 529.18,-266.86"/>
<polygon fill="black" stroke="black" points="530.78,-263.73 520.51,-261.12 526.92,-269.56 530.78,-263.73"/>
<text text-anchor="middle" x="525.49" y="-281.92" font-family="Helvetica,sans-Serif" font-size="14.00">True</text>
</g>
<!-- 8 -->
<g id="node9" class="node">
<title>8</title>
<polygon fill="none" stroke="black" points="858,-261 711,-261 711,-193 858,-193 858,-261"/>
<text text-anchor="middle" x="784.5" y="-245.8" font-family="Helvetica,sans-Serif" font-size="14.00">LightGBM &lt;= 0.775</text>
<text text-anchor="middle" x="784.5" y="-230.8" font-family="Helvetica,sans-Serif" font-size="14.00">gini = 0.389</text>
<text text-anchor="middle" x="784.5" y="-215.8" font-family="Helvetica,sans-Serif" font-size="14.00">counts = [1647, 4586]</text>
<text text-anchor="middle" x="784.5" y="-200.8" font-family="Helvetica,sans-Serif" font-size="14.00">class = 1</text>
</g>
<!-- 0&#45;&gt;8 -->
<g id="edge8" class="edge">
<title>0&#45;&gt;8</title>
<path fill="none" stroke="black" d="M676.45,-296.88C691.61,-287.21 708.32,-276.56 723.97,-266.59"/>
<polygon fill="black" stroke="black" points="725.99,-269.45 732.54,-261.12 722.23,-263.55 725.99,-269.45"/>
<text text-anchor="middle" x="727.14" y="-281.83" font-family="Helvetica,sans-Serif" font-size="14.00">False</text>
</g>
<!-- 2 -->
<g id="node3" class="node">
<title>2</title>
<polygon fill="none" stroke="black" points="309,-157 162,-157 162,-89 309,-89 309,-157"/>
<text text-anchor="middle" x="235.5" y="-141.8" font-family="Helvetica,sans-Serif" font-size="14.00">XGBoost &lt;= 0.031</text>
<text text-anchor="middle" x="235.5" y="-126.8" font-family="Helvetica,sans-Serif" font-size="14.00">gini = 0.046</text>
<text text-anchor="middle" x="235.5" y="-111.8" font-family="Helvetica,sans-Serif" font-size="14.00">counts = [14003, 340]</text>
<text text-anchor="middle" x="235.5" y="-96.8" font-family="Helvetica,sans-Serif" font-size="14.00">class = 0</text>
</g>
<!-- 1&#45;&gt;2 -->
<g id="edge2" class="edge">
<title>1&#45;&gt;2</title>
<path fill="none" stroke="black" d="M394.2,-192.88C369.96,-182.36 343.04,-170.68 318.35,-159.96"/>
<polygon fill="black" stroke="black" points="319.58,-156.68 309.01,-155.91 316.79,-163.1 319.58,-156.68"/>
</g>
<!-- 5 -->
<g id="node6" class="node">
<title>5</title>
<polygon fill="none" stroke="black" points="544,-157 397,-157 397,-89 544,-89 544,-157"/>
<text text-anchor="middle" x="470.5" y="-141.8" font-family="Helvetica,sans-Serif" font-size="14.00">LightGBM &lt;= 0.247</text>
<text text-anchor="middle" x="470.5" y="-126.8" font-family="Helvetica,sans-Serif" font-size="14.00">gini = 0.377</text>
<text text-anchor="middle" x="470.5" y="-111.8" font-family="Helvetica,sans-Serif" font-size="14.00">counts = [4094, 1378]</text>
<text text-anchor="middle" x="470.5" y="-96.8" font-family="Helvetica,sans-Serif" font-size="14.00">class = 0</text>
</g>
<!-- 1&#45;&gt;5 -->
<g id="edge5" class="edge">
<title>1&#45;&gt;5</title>
<path fill="none" stroke="black" d="M470.5,-192.88C470.5,-184.78 470.5,-175.98 470.5,-167.47"/>
<polygon fill="black" stroke="black" points="474,-167.3 470.5,-157.3 467,-167.3 474,-167.3"/>
</g>
<!-- 3 -->
<g id="node4" class="node">
<title>3</title>
<polygon fill="none" stroke="black" points="147,-53 0,-53 0,0 147,0 147,-53"/>
<text text-anchor="middle" x="73.5" y="-37.8" font-family="Helvetica,sans-Serif" font-size="14.00">gini = 0.018</text>
<text text-anchor="middle" x="73.5" y="-22.8" font-family="Helvetica,sans-Serif" font-size="14.00">counts = [10863, 101]</text>
<text text-anchor="middle" x="73.5" y="-7.8" font-family="Helvetica,sans-Serif" font-size="14.00">class = 0</text>
</g>
<!-- 2&#45;&gt;3 -->
<g id="edge3" class="edge">
<title>2&#45;&gt;3</title>
<path fill="none" stroke="black" d="M178.84,-88.95C161.67,-78.93 142.89,-67.98 126,-58.13"/>
<polygon fill="black" stroke="black" points="127.76,-55.1 117.36,-53.09 124.24,-61.15 127.76,-55.1"/>
</g>
<!-- 4 -->
<g id="node5" class="node">
<title>4</title>
<polygon fill="none" stroke="black" points="305.5,-53 165.5,-53 165.5,0 305.5,0 305.5,-53"/>
<text text-anchor="middle" x="235.5" y="-37.8" font-family="Helvetica,sans-Serif" font-size="14.00">gini = 0.131</text>
<text text-anchor="middle" x="235.5" y="-22.8" font-family="Helvetica,sans-Serif" font-size="14.00">counts = [3140, 239]</text>
<text text-anchor="middle" x="235.5" y="-7.8" font-family="Helvetica,sans-Serif" font-size="14.00">class = 0</text>
</g>
<!-- 2&#45;&gt;4 -->
<g id="edge4" class="edge">
<title>2&#45;&gt;4</title>
<path fill="none" stroke="black" d="M235.5,-88.95C235.5,-80.72 235.5,-71.85 235.5,-63.48"/>
<polygon fill="black" stroke="black" points="239,-63.24 235.5,-53.24 232,-63.24 239,-63.24"/>
</g>
<!-- 6 -->
<g id="node7" class="node">
<title>6</title>
<polygon fill="none" stroke="black" points="463.5,-53 323.5,-53 323.5,0 463.5,0 463.5,-53"/>
<text text-anchor="middle" x="393.5" y="-37.8" font-family="Helvetica,sans-Serif" font-size="14.00">gini = 0.299</text>
<text text-anchor="middle" x="393.5" y="-22.8" font-family="Helvetica,sans-Serif" font-size="14.00">counts = [2295, 514]</text>
<text text-anchor="middle" x="393.5" y="-7.8" font-family="Helvetica,sans-Serif" font-size="14.00">class = 0</text>
</g>
<!-- 5&#45;&gt;6 -->
<g id="edge6" class="edge">
<title>5&#45;&gt;6</title>
<path fill="none" stroke="black" d="M443.57,-88.95C436.26,-79.98 428.35,-70.27 421.01,-61.26"/>
<polygon fill="black" stroke="black" points="423.5,-58.78 414.47,-53.24 418.07,-63.2 423.5,-58.78"/>
</g>
<!-- 7 -->
<g id="node8" class="node">
<title>7</title>
<polygon fill="none" stroke="black" points="621.5,-53 481.5,-53 481.5,0 621.5,0 621.5,-53"/>
<text text-anchor="middle" x="551.5" y="-37.8" font-family="Helvetica,sans-Serif" font-size="14.00">gini = 0.438</text>
<text text-anchor="middle" x="551.5" y="-22.8" font-family="Helvetica,sans-Serif" font-size="14.00">counts = [1799, 864]</text>
<text text-anchor="middle" x="551.5" y="-7.8" font-family="Helvetica,sans-Serif" font-size="14.00">class = 0</text>
</g>
<!-- 5&#45;&gt;7 -->
<g id="edge7" class="edge">
<title>5&#45;&gt;7</title>
<path fill="none" stroke="black" d="M498.83,-88.95C506.59,-79.89 515.01,-70.07 522.8,-60.99"/>
<polygon fill="black" stroke="black" points="525.59,-63.11 529.44,-53.24 520.27,-58.55 525.59,-63.11"/>
</g>
<!-- 9 -->
<g id="node10" class="node">
<title>9</title>
<polygon fill="none" stroke="black" points="858,-157 711,-157 711,-89 858,-89 858,-157"/>
<text text-anchor="middle" x="784.5" y="-141.8" font-family="Helvetica,sans-Serif" font-size="14.00">LightGBM &lt;= 0.625</text>
<text text-anchor="middle" x="784.5" y="-126.8" font-family="Helvetica,sans-Serif" font-size="14.00">gini = 0.483</text>
<text text-anchor="middle" x="784.5" y="-111.8" font-family="Helvetica,sans-Serif" font-size="14.00">counts = [1509, 2202]</text>
<text text-anchor="middle" x="784.5" y="-96.8" font-family="Helvetica,sans-Serif" font-size="14.00">class = 1</text>
</g>
<!-- 8&#45;&gt;9 -->
<g id="edge9" class="edge">
<title>8&#45;&gt;9</title>
<path fill="none" stroke="black" d="M784.5,-192.88C784.5,-184.78 784.5,-175.98 784.5,-167.47"/>
<polygon fill="black" stroke="black" points="788,-167.3 784.5,-157.3 781,-167.3 788,-167.3"/>
</g>
<!-- 12 -->
<g id="node13" class="node">
<title>12</title>
<polygon fill="none" stroke="black" points="1091.5,-157 951.5,-157 951.5,-89 1091.5,-89 1091.5,-157"/>
<text text-anchor="middle" x="1021.5" y="-141.8" font-family="Helvetica,sans-Serif" font-size="14.00">XGBoost &lt;= 0.912</text>
<text text-anchor="middle" x="1021.5" y="-126.8" font-family="Helvetica,sans-Serif" font-size="14.00">gini = 0.103</text>
<text text-anchor="middle" x="1021.5" y="-111.8" font-family="Helvetica,sans-Serif" font-size="14.00">counts = [138, 2384]</text>
<text text-anchor="middle" x="1021.5" y="-96.8" font-family="Helvetica,sans-Serif" font-size="14.00">class = 1</text>
</g>
<!-- 8&#45;&gt;12 -->
<g id="edge12" class="edge">
<title>8&#45;&gt;12</title>
<path fill="none" stroke="black" d="M858.19,-194.29C884.69,-182.88 914.69,-169.97 941.69,-158.35"/>
<polygon fill="black" stroke="black" points="943.3,-161.47 951.1,-154.3 940.53,-155.04 943.3,-161.47"/>
</g>
<!-- 10 -->
<g id="node11" class="node">
<title>10</title>
<polygon fill="none" stroke="black" points="779.5,-53 639.5,-53 639.5,0 779.5,0 779.5,-53"/>
<text text-anchor="middle" x="709.5" y="-37.8" font-family="Helvetica,sans-Serif" font-size="14.00">gini = 0.499</text>
<text text-anchor="middle" x="709.5" y="-22.8" font-family="Helvetica,sans-Serif" font-size="14.00">counts = [995, 1094]</text>
<text text-anchor="middle" x="709.5" y="-7.8" font-family="Helvetica,sans-Serif" font-size="14.00">class = 1</text>
</g>
<!-- 9&#45;&gt;10 -->
<g id="edge10" class="edge">
<title>9&#45;&gt;10</title>
<path fill="none" stroke="black" d="M758.27,-88.95C751.15,-79.98 743.44,-70.27 736.3,-61.26"/>
<polygon fill="black" stroke="black" points="738.88,-58.89 729.93,-53.24 733.4,-63.25 738.88,-58.89"/>
</g>
<!-- 11 -->
<g id="node12" class="node">
<title>11</title>
<polygon fill="none" stroke="black" points="937.5,-53 797.5,-53 797.5,0 937.5,0 937.5,-53"/>
<text text-anchor="middle" x="867.5" y="-37.8" font-family="Helvetica,sans-Serif" font-size="14.00">gini = 0.433</text>
<text text-anchor="middle" x="867.5" y="-22.8" font-family="Helvetica,sans-Serif" font-size="14.00">counts = [514, 1108]</text>
<text text-anchor="middle" x="867.5" y="-7.8" font-family="Helvetica,sans-Serif" font-size="14.00">class = 1</text>
</g>
<!-- 9&#45;&gt;11 -->
<g id="edge11" class="edge">
<title>9&#45;&gt;11</title>
<path fill="none" stroke="black" d="M813.53,-88.95C821.48,-79.89 830.11,-70.07 838.09,-60.99"/>
<polygon fill="black" stroke="black" points="840.93,-63.06 844.9,-53.24 835.67,-58.44 840.93,-63.06"/>
</g>
<!-- 13 -->
<g id="node14" class="node">
<title>13</title>
<polygon fill="none" stroke="black" points="1087.5,-53 955.5,-53 955.5,0 1087.5,0 1087.5,-53"/>
<text text-anchor="middle" x="1021.5" y="-37.8" font-family="Helvetica,sans-Serif" font-size="14.00">gini = 0.282</text>
<text text-anchor="middle" x="1021.5" y="-22.8" font-family="Helvetica,sans-Serif" font-size="14.00">counts = [114, 557]</text>
<text text-anchor="middle" x="1021.5" y="-7.8" font-family="Helvetica,sans-Serif" font-size="14.00">class = 1</text>
</g>
<!-- 12&#45;&gt;13 -->
<g id="edge13" class="edge">
<title>12&#45;&gt;13</title>
<path fill="none" stroke="black" d="M1021.5,-88.95C1021.5,-80.72 1021.5,-71.85 1021.5,-63.48"/>
<polygon fill="black" stroke="black" points="1025,-63.24 1021.5,-53.24 1018,-63.24 1025,-63.24"/>
</g>
<!-- 14 -->
<g id="node15" class="node">
<title>14</title>
<polygon fill="none" stroke="black" points="1237.5,-53 1105.5,-53 1105.5,0 1237.5,0 1237.5,-53"/>
<text text-anchor="middle" x="1171.5" y="-37.8" font-family="Helvetica,sans-Serif" font-size="14.00">gini = 0.026</text>
<text text-anchor="middle" x="1171.5" y="-22.8" font-family="Helvetica,sans-Serif" font-size="14.00">counts = [24, 1827]</text>
<text text-anchor="middle" x="1171.5" y="-7.8" font-family="Helvetica,sans-Serif" font-size="14.00">class = 1</text>
</g>
<!-- 12&#45;&gt;14 -->
<g id="edge14" class="edge">
<title>12&#45;&gt;14</title>
<path fill="none" stroke="black" d="M1073.96,-88.95C1089.5,-79.16 1106.46,-68.48 1121.82,-58.8"/>
<polygon fill="black" stroke="black" points="1124.05,-61.53 1130.65,-53.24 1120.32,-55.61 1124.05,-61.53"/>
</g>
</g>
</svg>