<?xml version="1.0" encoding="UTF-8" standalone="no"?>
<!DOCTYPE svg PUBLIC "-//W3C//DTD SVG 1.1//EN"
 "http://www.w3.org/Graphics/SVG/1.1/DTD/svg11.dtd">
<!-- Generated by graphviz version 2.42.3 (20191010.1750)
 -->
<!-- Title: Tree Pages: 1 -->
<svg width="397pt" height="188pt"
 viewBox="0.00 0.00 397.00 188.00" xmlns="http://www.w3.org/2000/svg" xmlns:xlink="http://www.w3.org/1999/xlink">
<g id="graph0" class="graph" transform="scale(1 1) rotate(0) translate(4 184)">
<title>Tree</title>
<polygon fill="white" stroke="transparent" points="-4,4 -4,-184 393,-184 393,4 -4,4"/>
<!-- 0 -->
<g id="node1" class="node">
<title>0</title>
<polygon fill="none" stroke="black" points="279.5,-180 108.5,-180 108.5,-144 279.5,-144 279.5,-180"/>
<text text-anchor="middle" x="194" y="-158.3" font-family="Times,serif" font-size="14.00">x1_Never&#45;married &lt;= 0.5.0</text>
</g>
<!-- 1 -->
<g id="node2" class="node">
<title>1</title>
<polygon fill="none" stroke="black" points="192.5,-108 39.5,-108 39.5,-72 192.5,-72 192.5,-108"/>
<text text-anchor="middle" x="116" y="-86.3" font-family="Times,serif" font-size="14.00">capital.gain &lt;= 0.5306.0</text>
</g>
<!-- 0&#45;&gt;1 -->
<g id="edge1" class="edge">
<title>0&#45;&gt;1</title>
<path fill="none" stroke="black" d="M174.72,-143.7C165.08,-135.05 153.27,-124.45 142.77,-115.03"/>
<polygon fill="black" stroke="black" points="144.84,-112.18 135.06,-108.1 140.16,-117.39 144.84,-112.18"/>
<text text-anchor="middle" x="136.41" y="-129.37" font-family="Times,serif" font-size="14.00">True</text>
</g>
<!-- 4 -->
<g id="node5" class="node">
<title>4</title>
<polygon fill="none" stroke="black" points="335.5,-108 210.5,-108 210.5,-72 335.5,-72 335.5,-108"/>
<text text-anchor="middle" x="273" y="-86.3" font-family="Times,serif" font-size="14.00">fnlwgt &lt;= 7.4778.0</text>
</g>
<!-- 0&#45;&gt;4 -->
<g id="edge4" class="edge">
<title>0&#45;&gt;4</title>
<path fill="none" stroke="black" d="M213.53,-143.7C223.38,-134.97 235.49,-124.24 246.2,-114.75"/>
<polygon fill="black" stroke="black" points="248.53,-117.36 253.7,-108.1 243.89,-112.12 248.53,-117.36"/>
<text text-anchor="middle" x="252.19" y="-129.36" font-family="Times,serif" font-size="14.00">False</text>
</g>
<!-- 2 -->
<g id="node3" class="node">
<title>2</title>
<polygon fill="none" stroke="black" points="76,-36 0,-36 0,0 76,0 76,-36"/>
<text text-anchor="middle" x="38" y="-14.3" font-family="Times,serif" font-size="14.00">class = 0.0</text>
</g>
<!-- 1&#45;&gt;2 -->
<g id="edge2" class="edge">
<title>1&#45;&gt;2</title>
<path fill="none" stroke="black" d="M96.72,-71.7C87.08,-63.05 75.27,-52.45 64.77,-43.03"/>
<polygon fill="black" stroke="black" points="66.84,-40.18 57.06,-36.1 62.16,-45.39 66.84,-40.18"/>
</g>
<!-- 3 -->
<g id="node4" class="node">
<title>3</title>
<polygon fill="none" stroke="black" points="170,-36 94,-36 94,0 170,0 170,-36"/>
<text text-anchor="middle" x="132" y="-14.3" font-family="Times,serif" font-size="14.00">class = 1.0</text>
</g>
<!-- 1&#45;&gt;3 -->
<g id="edge3" class="edge">
<title>1&#45;&gt;3</title>
<path fill="none" stroke="black" d="M119.96,-71.7C121.72,-63.98 123.84,-54.71 125.8,-46.11"/>
<polygon fill="black" stroke="black" points="129.27,-46.63 128.09,-36.1 122.45,-45.07 129.27,-46.63"/>
</g>
<!-- 5 -->
<g id="node6" class="node">
<title>5</title>
<polygon fill="none" stroke="black" points="295,-36 219,-36 219,0 295,0 295,-36"/>
<text text-anchor="middle" x="257" y="-14.3" font-family="Times,serif" font-size="14.00">class = 0.0</text>
</g>
<!-- 4&#45;&gt;5 -->
<g id="edge5" class="edge">
<title>4&#45;&gt;5</title>
<path fill="none" stroke="black" d="M269.04,-71.7C267.28,-63.98 265.16,-54.71 263.2,-46.11"/>
<polygon fill="black" stroke="black" points="266.55,-45.07 260.91,-36.1 259.73,-46.63 266.55,-45.07"/>
</g>
<!-- 6 -->
<g id="node7" class="node">
<title>6</title>
<polygon fill="none" stroke="black" points="389,-36 313,-36 313,0 389,0 389,-36"/>
<text text-anchor="middle" x="351" y="-14.3" font-family="Times,serif" font-size="14.00">class = 1.0</text>
</g>
<!-- 4&#45;&gt;6 -->
<g id="edge6" class="edge">
<title>4&#45;&gt;6</title>
<path fill="none" stroke="black" d="M292.28,-71.7C301.92,-63.05 313.73,-52.45 324.23,-43.03"/>
<polygon fill="black" stroke="black" points="326.84,-45.39 331.94,-36.1 322.16,-40.18 326.84,-45.39"/>
</g>
</g>
</svg>