<?xml version="1.0" encoding="UTF-8" standalone="no"?>
<!DOCTYPE svg PUBLIC "-//W3C//DTD SVG 1.1//EN"
 "http://www.w3.org/Graphics/SVG/1.1/DTD/svg11.dtd">
<!-- Generated by graphviz version 2.42.3 (20191010.1750)
 -->
<!-- Title: Tree Pages: 1 -->
<svg width="698pt" height="260pt"
 viewBox="0.00 0.00 698.00 260.00" xmlns="http://www.w3.org/2000/svg" xmlns:xlink="http://www.w3.org/1999/xlink">
<g id="graph0" class="graph" transform="scale(1 1) rotate(0) translate(4 256)">
<title>Tree</title>
<polygon fill="white" stroke="transparent" points="-4,4 -4,-256 694,-256 694,4 -4,4"/>
<!-- 0 -->
<g id="node1" class="node">
<title>0</title>
<polygon fill="none" stroke="black" points="415,-252 275,-252 275,-216 415,-216 415,-252"/>
<text text-anchor="middle" x="345" y="-230.3" font-family="Times,serif" font-size="14.00">LightGBM &lt;= 0.4316</text>
</g>
<!-- 1 -->
<g id="node2" class="node">
<title>1</title>
<polygon fill="none" stroke="black" points="333.5,-180 202.5,-180 202.5,-144 333.5,-144 333.5,-180"/>
<text text-anchor="middle" x="268" y="-158.3" font-family="Times,serif" font-size="14.00">XGBoost &lt;= 0.1345</text>
</g>
<!-- 0&#45;&gt;1 -->
<g id="edge1" class="edge">
<title>0&#45;&gt;1</title>
<path fill="none" stroke="black" d="M325.97,-215.7C316.46,-207.05 304.79,-196.45 294.43,-187.03"/>
<polygon fill="black" stroke="black" points="296.57,-184.24 286.81,-180.1 291.86,-189.42 296.57,-184.24"/>
<text text-anchor="middle" x="288" y="-201.38" font-family="Times,serif" font-size="14.00">True</text>
</g>
<!-- 8 -->
<g id="node9" class="node">
<title>8</title>
<polygon fill="none" stroke="black" points="492,-180 352,-180 352,-144 492,-144 492,-180"/>
<text text-anchor="middle" x="422" y="-158.3" font-family="Times,serif" font-size="14.00">LightGBM &lt;= 0.7592</text>
</g>
<!-- 0&#45;&gt;8 -->
<g id="edge8" class="edge">
<title>0&#45;&gt;8</title>
<path fill="none" stroke="black" d="M364.03,-215.7C373.54,-207.05 385.21,-196.45 395.57,-187.03"/>
<polygon fill="black" stroke="black" points="398.14,-189.42 403.19,-180.1 393.43,-184.24 398.14,-189.42"/>
<text text-anchor="middle" x="402" y="-201.38" font-family="Times,serif" font-size="14.00">False</text>
</g>
<!-- 2 -->
<g id="node3" class="node">
<title>2</title>
<polygon fill="none" stroke="black" points="179.5,-108 48.5,-108 48.5,-72 179.5,-72 179.5,-108"/>
<text text-anchor="middle" x="114" y="-86.3" font-family="Times,serif" font-size="14.00">XGBoost &lt;= 0.0423</text>
</g>
<!-- 1&#45;&gt;2 -->
<g id="edge2" class="edge">
<title>1&#45;&gt;2</title>
<path fill="none" stroke="black" d="M230.33,-143.88C209.37,-134.35 183.1,-122.41 160.82,-112.28"/>
<polygon fill="black" stroke="black" points="162.1,-109.02 151.55,-108.07 159.21,-115.39 162.1,-109.02"/>
</g>
<!-- 5 -->
<g id="node6" class="node">
<title>5</title>
<polygon fill="none" stroke="black" points="338,-108 198,-108 198,-72 338,-72 338,-108"/>
<text text-anchor="middle" x="268" y="-86.3" font-family="Times,serif" font-size="14.00">LightGBM &lt;= 0.2539</text>
</g>
<!-- 1&#45;&gt;5 -->
<g id="edge5" class="edge">
<title>1&#45;&gt;5</title>
<path fill="none" stroke="black" d="M268,-143.7C268,-135.98 268,-126.71 268,-118.11"/>
<polygon fill="black" stroke="black" points="271.5,-118.1 268,-108.1 264.5,-118.1 271.5,-118.1"/>
</g>
<!-- 3 -->
<g id="node4" class="node">
<title>3</title>
<polygon fill="none" stroke="black" points="66,-36 0,-36 0,0 66,0 66,-36"/>
<text text-anchor="middle" x="33" y="-14.3" font-family="Times,serif" font-size="14.00">class = 0</text>
</g>
<!-- 2&#45;&gt;3 -->
<g id="edge3" class="edge">
<title>2&#45;&gt;3</title>
<path fill="none" stroke="black" d="M93.98,-71.7C83.87,-62.97 71.46,-52.24 60.48,-42.75"/>
<polygon fill="black" stroke="black" points="62.65,-39.99 52.79,-36.1 58.07,-45.29 62.65,-39.99"/>
</g>
<!-- 4 -->
<g id="node5" class="node">
<title>4</title>
<polygon fill="none" stroke="black" points="150,-36 84,-36 84,0 150,0 150,-36"/>
<text text-anchor="middle" x="117" y="-14.3" font-family="Times,serif" font-size="14.00">class = 0</text>
</g>
<!-- 2&#45;&gt;4 -->
<g id="edge4" class="edge">
<title>2&#45;&gt;4</title>
<path fill="none" stroke="black" d="M114.74,-71.7C115.07,-63.98 115.47,-54.71 115.84,-46.11"/>
<polygon fill="black" stroke="black" points="119.34,-46.25 116.27,-36.1 112.34,-45.95 119.34,-46.25"/>
</g>
<!-- 6 -->
<g id="node7" class="node">
<title>6</title>
<polygon fill="none" stroke="black" points="255,-36 189,-36 189,0 255,0 255,-36"/>
<text text-anchor="middle" x="222" y="-14.3" font-family="Times,serif" font-size="14.00">class = 0</text>
</g>
<!-- 5&#45;&gt;6 -->
<g id="edge6" class="edge">
<title>5&#45;&gt;6</title>
<path fill="none" stroke="black" d="M256.63,-71.7C251.28,-63.56 244.8,-53.69 238.89,-44.7"/>
<polygon fill="black" stroke="black" points="241.66,-42.54 233.24,-36.1 235.81,-46.38 241.66,-42.54"/>
</g>
<!-- 7 -->
<g id="node8" class="node">
<title>7</title>
<polygon fill="none" stroke="black" points="339,-36 273,-36 273,0 339,0 339,-36"/>
<text text-anchor="middle" x="306" y="-14.3" font-family="Times,serif" font-size="14.00">class = 0</text>
</g>
<!-- 5&#45;&gt;7 -->
<g id="edge7" class="edge">
<title>5&#45;&gt;7</title>
<path fill="none" stroke="black" d="M277.39,-71.7C281.76,-63.64 287.06,-53.89 291.9,-44.98"/>
<polygon fill="black" stroke="black" points="295.02,-46.56 296.71,-36.1 288.87,-43.22 295.02,-46.56"/>
</g>
<!-- 9 -->
<g id="node10" class="node">
<title>9</title>
<polygon fill="none" stroke="black" points="487.5,-108 356.5,-108 356.5,-72 487.5,-72 487.5,-108"/>
<text text-anchor="middle" x="422" y="-86.3" font-family="Times,serif" font-size="14.00">XGBoost &lt;= 0.5304</text>
</g>
<!-- 8&#45;&gt;9 -->
<g id="edge9" class="edge">
<title>8&#45;&gt;9</title>
<path fill="none" stroke="black" d="M422,-143.7C422,-135.98 422,-126.71 422,-118.11"/>
<polygon fill="black" stroke="black" points="425.5,-118.1 422,-108.1 418.5,-118.1 425.5,-118.1"/>
</g>
<!-- 12 -->
<g id="node13" class="node">
<title>12</title>
<polygon fill="none" stroke="black" points="646,-108 506,-108 506,-72 646,-72 646,-108"/>
<text text-anchor="middle" x="576" y="-86.3" font-family="Times,serif" font-size="14.00">LightGBM &lt;= 0.8917</text>
</g>
<!-- 8&#45;&gt;12 -->
<g id="edge12" class="edge">
<title>8&#45;&gt;12</title>
<path fill="none" stroke="black" d="M459.67,-143.88C480.63,-134.35 506.9,-122.41 529.18,-112.28"/>
<polygon fill="black" stroke="black" points="530.79,-115.39 538.45,-108.07 527.9,-109.02 530.79,-115.39"/>
</g>
<!-- 10 -->
<g id="node11" class="node">
<title>10</title>
<polygon fill="none" stroke="black" points="433,-36 367,-36 367,0 433,0 433,-36"/>
<text text-anchor="middle" x="400" y="-14.3" font-family="Times,serif" font-size="14.00">class = 0</text>
</g>
<!-- 9&#45;&gt;10 -->
<g id="edge10" class="edge">
<title>9&#45;&gt;10</title>
<path fill="none" stroke="black" d="M416.56,-71.7C414.11,-63.9 411.16,-54.51 408.43,-45.83"/>
<polygon fill="black" stroke="black" points="411.71,-44.59 405.38,-36.1 405.04,-46.69 411.71,-44.59"/>
</g>
<!-- 11 -->
<g id="node12" class="node">
<title>11</title>
<polygon fill="none" stroke="black" points="517,-36 451,-36 451,0 517,0 517,-36"/>
<text text-anchor="middle" x="484" y="-14.3" font-family="Times,serif" font-size="14.00">class = 1</text>
</g>
<!-- 9&#45;&gt;11 -->
<g id="edge11" class="edge">
<title>9&#45;&gt;11</title>
<path fill="none" stroke="black" d="M437.33,-71.7C444.76,-63.3 453.82,-53.07 461.98,-43.86"/>
<polygon fill="black" stroke="black" points="464.84,-45.91 468.85,-36.1 459.6,-41.27 464.84,-45.91"/>
</g>
<!-- 13 -->
<g id="node14" class="node">
<title>13</title>
<polygon fill="none" stroke="black" points="606,-36 540,-36 540,0 606,0 606,-36"/>
<text text-anchor="middle" x="573" y="-14.3" font-family="Times,serif" font-size="14.00">class = 1</text>
</g>
<!-- 12&#45;&gt;13 -->
<g id="edge13" class="edge">
<title>12&#45;&gt;13</title>
<path fill="none" stroke="black" d="M575.26,-71.7C574.93,-63.98 574.53,-54.71 574.16,-46.11"/>
<polygon fill="black" stroke="black" points="577.66,-45.95 573.73,-36.1 570.66,-46.25 577.66,-45.95"/>
</g>
<!-- 14 -->
<g id="node15" class="node">
<title>14</title>
<polygon fill="none" stroke="black" points="690,-36 624,-36 624,0 690,0 690,-36"/>
<text text-anchor="middle" x="657" y="-14.3" font-family="Times,serif" font-size="14.00">class = 1</text>
</g>
<!-- 12&#45;&gt;14 -->
<g id="edge14" class="edge">
<title>12&#45;&gt;14</title>
<path fill="none" stroke="black" d="M596.02,-71.7C606.13,-62.97 618.54,-52.24 629.52,-42.75"/>
<polygon fill="black" stroke="black" points="631.93,-45.29 637.21,-36.1 627.35,-39.99 631.93,-45.29"/>
</g>
</g>
</svg>