<?xml version="1.0" encoding="UTF-8" standalone="no"?>
<!DOCTYPE svg PUBLIC "-//W3C//DTD SVG 1.1//EN"
 "http://www.w3.org/Graphics/SVG/1.1/DTD/svg11.dtd">
<!-- Generated by graphviz version 6.0.1 (0)
 -->
<!-- Title: Tree Pages: 1 -->
<svg width="632pt" height="269pt"
 viewBox="0.00 0.00 632.00 269.00" xmlns="http://www.w3.org/2000/svg" xmlns:xlink="http://www.w3.org/1999/xlink">
<g id="graph0" class="graph" transform="scale(1 1) rotate(0) translate(4 265)">
<title>Tree</title>
<polygon fill="white" stroke="none" points="-4,4 -4,-265 628,-265 628,4 -4,4"/>
<!-- 0 -->
<g id="node1" class="node">
<title>0</title>
<polygon fill="none" stroke="black" points="436.5,-261 201.5,-261 201.5,-193 436.5,-193 436.5,-261"/>
<text text-anchor="middle" x="319" y="-245.8" font-family="Helvetica,sans-Serif" font-size="14.00">marital.status_Never&#45;married &lt;= 0.5</text>
<text text-anchor="middle" x="319" y="-230.8" font-family="Helvetica,sans-Serif" font-size="14.00">gini = 0.364</text>
<text text-anchor="middle" x="319" y="-215.8" font-family="Helvetica,sans-Serif" font-size="14.00">counts = [19815, 6233]</text>
<text text-anchor="middle" x="319" y="-200.8" font-family="Helvetica,sans-Serif" font-size="14.00">class = 0.0</text>
</g>
<!-- 1 -->
<g id="node2" class="node">
<title>1</title>
<polygon fill="none" stroke="black" points="313.5,-157 158.5,-157 158.5,-89 313.5,-89 313.5,-157"/>
<text text-anchor="middle" x="236" y="-141.8" font-family="Helvetica,sans-Serif" font-size="14.00">age &lt;= &#45;0.223</text>
<text text-anchor="middle" x="236" y="-126.8" font-family="Helvetica,sans-Serif" font-size="14.00">gini = 0.444</text>
<text text-anchor="middle" x="236" y="-111.8" font-family="Helvetica,sans-Serif" font-size="14.00">counts = [11719, 5829]</text>
<text text-anchor="middle" x="236" y="-96.8" font-family="Helvetica,sans-Serif" font-size="14.00">class = 0.0</text>
</g>
<!-- 0&#45;&gt;1 -->
<g id="edge1" class="edge">
<title>0&#45;&gt;1</title>
<path fill="none" stroke="black" d="M292.05,-192.88C284.88,-184.07 277.04,-174.43 269.55,-165.24"/>
<polygon fill="black" stroke="black" points="272.12,-162.85 263.1,-157.3 266.69,-167.26 272.12,-162.85"/>
<text text-anchor="middle" x="260.54" y="-178.47" font-family="Helvetica,sans-Serif" font-size="14.00">True</text>
</g>
<!-- 4 -->
<g id="node5" class="node">
<title>4</title>
<polygon fill="none" stroke="black" points="472,-157 332,-157 332,-89 472,-89 472,-157"/>
<text text-anchor="middle" x="402" y="-141.8" font-family="Helvetica,sans-Serif" font-size="14.00">age &lt;= &#45;0.812</text>
<text text-anchor="middle" x="402" y="-126.8" font-family="Helvetica,sans-Serif" font-size="14.00">gini = 0.091</text>
<text text-anchor="middle" x="402" y="-111.8" font-family="Helvetica,sans-Serif" font-size="14.00">counts = [8096, 404]</text>
<text text-anchor="middle" x="402" y="-96.8" font-family="Helvetica,sans-Serif" font-size="14.00">class = 0.0</text>
</g>
<!-- 0&#45;&gt;4 -->
<g id="edge4" class="edge">
<title>0&#45;&gt;4</title>
<path fill="none" stroke="black" d="M345.95,-192.88C353.12,-184.07 360.96,-174.43 368.45,-165.24"/>
<polygon fill="black" stroke="black" points="371.31,-167.26 374.9,-157.3 365.88,-162.85 371.31,-167.26"/>
<text text-anchor="middle" x="377.46" y="-178.47" font-family="Helvetica,sans-Serif" font-size="14.00">False</text>
</g>
<!-- 2 -->
<g id="node3" class="node">
<title>2</title>
<polygon fill="none" stroke="black" points="146,-53 0,-53 0,0 146,0 146,-53"/>
<text text-anchor="middle" x="73" y="-37.8" font-family="Helvetica,sans-Serif" font-size="14.00">gini = 0.344</text>
<text text-anchor="middle" x="73" y="-22.8" font-family="Helvetica,sans-Serif" font-size="14.00">counts = [3924, 1114]</text>
<text text-anchor="middle" x="73" y="-7.8" font-family="Helvetica,sans-Serif" font-size="14.00">class = 0.0</text>
</g>
<!-- 1&#45;&gt;2 -->
<g id="edge2" class="edge">
<title>1&#45;&gt;2</title>
<path fill="none" stroke="black" d="M178.99,-88.95C161.71,-78.93 142.82,-67.98 125.83,-58.13"/>
<polygon fill="black" stroke="black" points="127.54,-55.07 117.13,-53.09 124.03,-61.13 127.54,-55.07"/>
</g>
<!-- 3 -->
<g id="node4" class="node">
<title>3</title>
<polygon fill="none" stroke="black" points="311.5,-53 164.5,-53 164.5,0 311.5,0 311.5,-53"/>
<text text-anchor="middle" x="238" y="-37.8" font-family="Helvetica,sans-Serif" font-size="14.00">gini = 0.47</text>
<text text-anchor="middle" x="238" y="-22.8" font-family="Helvetica,sans-Serif" font-size="14.00">counts = [7795, 4715]</text>
<text text-anchor="middle" x="238" y="-7.8" font-family="Helvetica,sans-Serif" font-size="14.00">class = 0.0</text>
</g>
<!-- 1&#45;&gt;3 -->
<g id="edge3" class="edge">
<title>1&#45;&gt;3</title>
<path fill="none" stroke="black" d="M236.7,-88.95C236.87,-80.72 237.06,-71.85 237.24,-63.48"/>
<polygon fill="black" stroke="black" points="240.74,-63.31 237.46,-53.24 233.74,-63.16 240.74,-63.31"/>
</g>
<!-- 5 -->
<g id="node6" class="node">
<title>5</title>
<polygon fill="none" stroke="black" points="466,-53 334,-53 334,0 466,0 466,-53"/>
<text text-anchor="middle" x="400" y="-37.8" font-family="Helvetica,sans-Serif" font-size="14.00">gini = 0.015</text>
<text text-anchor="middle" x="400" y="-22.8" font-family="Helvetica,sans-Serif" font-size="14.00">counts = [4975, 39]</text>
<text text-anchor="middle" x="400" y="-7.8" font-family="Helvetica,sans-Serif" font-size="14.00">class = 0.0</text>
</g>
<!-- 4&#45;&gt;5 -->
<g id="edge5" class="edge">
<title>4&#45;&gt;5</title>
<path fill="none" stroke="black" d="M401.3,-88.95C401.13,-80.72 400.94,-71.85 400.76,-63.48"/>
<polygon fill="black" stroke="black" points="404.26,-63.16 400.54,-53.24 397.26,-63.31 404.26,-63.16"/>
</g>
<!-- 6 -->
<g id="node7" class="node">
<title>6</title>
<polygon fill="none" stroke="black" points="624,-53 484,-53 484,0 624,0 624,-53"/>
<text text-anchor="middle" x="554" y="-37.8" font-family="Helvetica,sans-Serif" font-size="14.00">gini = 0.187</text>
<text text-anchor="middle" x="554" y="-22.8" font-family="Helvetica,sans-Serif" font-size="14.00">counts = [3121, 365]</text>
<text text-anchor="middle" x="554" y="-7.8" font-family="Helvetica,sans-Serif" font-size="14.00">class = 0.0</text>
</g>
<!-- 4&#45;&gt;6 -->
<g id="edge6" class="edge">
<title>4&#45;&gt;6</title>
<path fill="none" stroke="black" d="M455.16,-88.95C471.05,-79.07 488.41,-68.28 504.09,-58.53"/>
<polygon fill="black" stroke="black" points="505.96,-61.49 512.6,-53.24 502.26,-55.54 505.96,-61.49"/>
</g>
</g>
</svg>