<?xml version="1.0" encoding="UTF-8" standalone="no"?>
<!DOCTYPE svg PUBLIC "-//W3C//DTD SVG 1.1//EN"
 "http://www.w3.org/Graphics/SVG/1.1/DTD/svg11.dtd">
<!-- Generated by graphviz version 2.42.3 (20191010.1750)
 -->
<!-- Title: Tree Pages: 1 -->
<svg width="396pt" height="188pt"
 viewBox="0.00 0.00 395.50 188.00" xmlns="http://www.w3.org/2000/svg" xmlns:xlink="http://www.w3.org/1999/xlink">
<g id="graph0" class="graph" transform="scale(1 1) rotate(0) translate(4 184)">
<title>Tree</title>
<polygon fill="white" stroke="transparent" points="-4,4 -4,-184 391.5,-184 391.5,4 -4,4"/>
<!-- 0 -->
<g id="node1" class="node">
<title>0</title>
<polygon fill="none" stroke="black" points="281.5,-180 83.5,-180 83.5,-144 281.5,-144 281.5,-180"/>
<text text-anchor="middle" x="182.5" y="-158.3" font-family="Times,serif" font-size="14.00">x1_Married&#45;civ&#45;spouse &lt;= 0.5.0</text>
</g>
<!-- 1 -->
<g id="node2" class="node">
<title>1</title>
<polygon fill="none" stroke="black" points="171,-108 0,-108 0,-72 171,-72 171,-108"/>
<text text-anchor="middle" x="85.5" y="-86.3" font-family="Times,serif" font-size="14.00">x1_Never&#45;married &lt;= 0.5.0</text>
</g>
<!-- 0&#45;&gt;1 -->
<g id="edge1" class="edge">
<title>0&#45;&gt;1</title>
<path fill="none" stroke="black" d="M158.52,-143.7C146.19,-134.8 130.98,-123.82 117.65,-114.2"/>
<polygon fill="black" stroke="black" points="119.36,-111.12 109.2,-108.1 115.26,-116.79 119.36,-111.12"/>
<text text-anchor="middle" x="113.19" y="-129.08" font-family="Times,serif" font-size="14.00">True</text>
</g>
<!-- 4 -->
<g id="node5" class="node">
<title>4</title>
<polygon fill="none" stroke="black" points="372,-108 189,-108 189,-72 372,-72 372,-108"/>
<text text-anchor="middle" x="280.5" y="-86.3" font-family="Times,serif" font-size="14.00">x2_Exec&#45;managerial &lt;= 0.5.0</text>
</g>
<!-- 0&#45;&gt;4 -->
<g id="edge4" class="edge">
<title>0&#45;&gt;4</title>
<path fill="none" stroke="black" d="M206.47,-143.88C219.05,-134.89 234.63,-123.76 248.25,-114.03"/>
<polygon fill="black" stroke="black" points="250.33,-116.85 256.43,-108.19 246.26,-111.15 250.33,-116.85"/>
<text text-anchor="middle" x="252.32" y="-129.15" font-family="Times,serif" font-size="14.00">False</text>
</g>
<!-- 2 -->
<g id="node3" class="node">
<title>2</title>
<polygon fill="none" stroke="black" points="80.5,-36 4.5,-36 4.5,0 80.5,0 80.5,-36"/>
<text text-anchor="middle" x="42.5" y="-14.3" font-family="Times,serif" font-size="14.00">class = 0.0</text>
</g>
<!-- 1&#45;&gt;2 -->
<g id="edge2" class="edge">
<title>1&#45;&gt;2</title>
<path fill="none" stroke="black" d="M74.87,-71.7C69.87,-63.56 63.81,-53.69 58.29,-44.7"/>
<polygon fill="black" stroke="black" points="61.22,-42.79 53.01,-36.1 55.26,-46.46 61.22,-42.79"/>
</g>
<!-- 3 -->
<g id="node4" class="node">
<title>3</title>
<polygon fill="none" stroke="black" points="174.5,-36 98.5,-36 98.5,0 174.5,0 174.5,-36"/>
<text text-anchor="middle" x="136.5" y="-14.3" font-family="Times,serif" font-size="14.00">class = 0.0</text>
</g>
<!-- 1&#45;&gt;3 -->
<g id="edge3" class="edge">
<title>1&#45;&gt;3</title>
<path fill="none" stroke="black" d="M98.11,-71.7C104.1,-63.47 111.38,-53.48 117.98,-44.42"/>
<polygon fill="black" stroke="black" points="120.98,-46.25 124.04,-36.1 115.32,-42.13 120.98,-46.25"/>
</g>
<!-- 5 -->
<g id="node6" class="node">
<title>5</title>
<polygon fill="none" stroke="black" points="293.5,-36 217.5,-36 217.5,0 293.5,0 293.5,-36"/>
<text text-anchor="middle" x="255.5" y="-14.3" font-family="Times,serif" font-size="14.00">class = 0.0</text>
</g>
<!-- 4&#45;&gt;5 -->
<g id="edge5" class="edge">
<title>4&#45;&gt;5</title>
<path fill="none" stroke="black" d="M274.32,-71.7C271.5,-63.81 268.11,-54.3 264.98,-45.55"/>
<polygon fill="black" stroke="black" points="268.27,-44.34 261.61,-36.1 261.68,-46.7 268.27,-44.34"/>
</g>
<!-- 6 -->
<g id="node7" class="node">
<title>6</title>
<polygon fill="none" stroke="black" points="387.5,-36 311.5,-36 311.5,0 387.5,0 387.5,-36"/>
<text text-anchor="middle" x="349.5" y="-14.3" font-family="Times,serif" font-size="14.00">class = 1.0</text>
</g>
<!-- 4&#45;&gt;6 -->
<g id="edge6" class="edge">
<title>4&#45;&gt;6</title>
<path fill="none" stroke="black" d="M297.56,-71.7C306,-63.14 316.32,-52.66 325.54,-43.3"/>
<polygon fill="black" stroke="black" points="328.11,-45.68 332.64,-36.1 323.13,-40.77 328.11,-45.68"/>
</g>
</g>
</svg>